<!DOCTYPE svg PUBLIC "-//W3C//DTD SVG 1.1//EN" "http://www.w3.org/Graphics/SVG/1.1/DTD/svg11.dtd">
<!-- Uploaded to: SVG Repo, www.svgrepo.com, Transformed by: SVG Repo Mixer Tools -->
<svg fill="#ffb825" width="800px" height="800px" viewBox="0 0 32 32" version="1.1" xmlns="http://www.w3.org/2000/svg">
<g id="SVGRepo_bgCarrier" stroke-width="0"/>
<g id="SVGRepo_tracerCarrier" stroke-linecap="round" stroke-linejoin="round"/>
<g id="SVGRepo_iconCarrier"> <title>bolt-lightning</title> <path d="M28.678 12.681c-0.122-0.256-0.379-0.43-0.676-0.43-0.001 0-0.001 0-0.002 0l-14.835 0.008 4.518-9.948c0.043-0.091 0.068-0.198 0.068-0.311 0-0.414-0.336-0.75-0.75-0.75-0 0-0 0-0.001 0h-9c-0.35 0-0.643 0.239-0.726 0.563l-0.001 0.005-4 16c-0.014 0.054-0.022 0.117-0.022 0.181 0 0.414 0.335 0.75 0.75 0.751h12.039l-2.767 11.068c-0.014 0.054-0.022 0.117-0.022 0.181 0 0.414 0.336 0.75 0.75 0.75 0.233 0 0.44-0.106 0.578-0.272l0.001-0.001 13.999-16.999c0.107-0.128 0.172-0.295 0.172-0.476 0-0.117-0.027-0.227-0.074-0.325l0.002 0.004zM15.533 26.959l2.194-8.777c0.014-0.055 0.022-0.117 0.022-0.182 0-0.414-0.336-0.75-0.75-0.75h-12.039l3.625-14.5h7.25l-4.519 9.949c-0.043 0.091-0.068 0.198-0.068 0.311 0 0.414 0.336 0.75 0.75 0.75 0 0 0 0 0.001 0l14.41-0.008z"/> </g>
</svg>